<svg height="16" viewBox="0 0 16 16" width="16" xmlns="http://www.w3.org/2000/svg"><path d="m2.148438 2.148438c-2.84375 2.839843-2.84375 6.863281 0 9.703124 4.339843 4.339844 11.851562 1.265626 11.851562-4.851562s-7.511719-9.191406-11.851562-4.851562m10.964843 5.113281c.015625 1.9375-4.078125 5.863281-6.113281 5.863281-2.425781 0-6.667969-4.367188-5.167969-5.320312 1.777344-1.125 2.796875-.980469 2.296875.324218-.238281.625.140625 1.902344.84375 2.84375 1.175782 1.578125 1.230469 1.453125.679688-1.566406-.410156-2.261719-.28125-3.28125.425781-3.28125.585937 0 .746094-.46875.367187-1.09375-.394531-.660156-.03125-.585938.921876.1875.941406.765625 1.183593 1.410156.605468 1.601562-.535156.179688-.972656.675782-.972656 1.101563s.65625.523437 1.457031.214844c.9375-.359375 1.242188-.214844.859375.402343-.328125.53125-.238281 1.1875.199219 1.457032.859375.53125 2.257813-3.472656 1.964844-5.621094-.160157-1.167969-.078125-1.167969.71875 0 .496093.722656.90625 2.019531.914062 2.886719" fill="#e0e0e0" fill-rule="evenodd" transform="translate(1 1)"/></svg>