<svg height="16" viewBox="0 0 16 16" width="16" xmlns="http://www.w3.org/2000/svg"><path d="m7.3136863 1.0451519c-1.1300539.1561083-2.1797857.4941546-3.1354935 1.1410596-.7783707.5268672-1.4612656 1.2265006-1.9842642 2.0139066-.4973947.7488583-.8815365 1.5944212-1.0603099 2.4819785-.95527094 4.7426384 3.3693827 8.8795764 7.9359446 8.2552864.9504617-.129934 1.8803567-.480581 2.6965237-.988244 3.708275-2.306571 4.338996-7.6732378 1.311294-10.8284044-.862632-.8989506-2.009172-1.5183411-3.1925886-1.8473904-.8120607-.2257936-1.7322548-.34407278-2.5711061-.2281923m5.2049197 3.4095282c.46704.363567.831781.9839945 1.065826 1.527371.318783.7401157.640439 1.6601785.553744 2.4819779-.175511 1.663713-1.809807 3.201643-2.999186 4.205327-.794997.670877-1.8195886 1.458842-2.8846556 1.574906-1.0595319.115463-2.119995-.506003-2.9473638-1.107716-.9414982-.684716-1.7807878-1.511478-2.4020398-2.508741-.2483083-.398596-.5356887-.9868407-.3479044-1.4627967.2247735-.56971 1.3074802-1.0017929 1.872006-1.0710849.2424849-.029766.595381-.0485.7412927.1937196.2551389.4235385-.1340085.9985353-.1083388 1.4491962.050084.8792768.4947129 1.7293578 1.00568 2.4183378.1414647.190746.5055731.837878.7871155.787158.1692126-.03049.1222367-.290441.10892-.405315-.051947-.448112-.1258299-.891399-.1989206-1.33645-.1766914-1.075882-.5697899-2.4158386-.281081-3.5002263.1756643-.659794.8205368-.3899122 1.0788423-.8937651.2031841-.3963332-.2225521-.8682646-.2488562-1.2700106.6383703.1869895 1.2930544.7408713 1.6904095 1.2730551.1582256.2119133.3702727.5401447.231145.8135268-.2186648.4296693-1.4769713.6919585-1.1614379 1.410845.3933613.8962013 1.655226-.2672517 2.2404251-.021508.292853.1229782.08341.4680216-.0042.6607119-.188638.4148282-.282515 1.1481662.270435 1.3574162.571502.216271 1.019879-.972216 1.173052-1.3574162.395401-.9943516.716088-2.1033072.762632-3.1820233.02626-.6084688-.228341-1.4782825.0024-2.0364951z" fill="#cf68ea"/></svg>